<?xml version="1.0" encoding="utf-8"?>
<!-- Generator: Adobe Illustrator 21.0.2, SVG Export Plug-In . SVG Version: 6.00 Build 0)  -->
<svg version="1.1" id="Layer_1" xmlns="http://www.w3.org/2000/svg" xmlns:xlink="http://www.w3.org/1999/xlink" x="0px" y="0px"
	 viewBox="0 0 38 39" style="enable-background:new 0 0 38 39;" xml:space="preserve">
<style type="text/css">
	.st0{fill:#0FA124;}
</style>
<g id="Material-GUI-">
	<g id="Loging--Copy-6" transform="translate(-21.000000, -377.000000)">
		<g>
			<path class="st0" d="M58.5,395c0,11.2-8.3,19.7-18.7,19.6c-5-0.1-9.4-1.9-12.9-5.5c-3.6-3.6-5.4-8-5.4-13.1
				c0-5.1,1.9-9.6,5.5-13.2c3.7-3.6,8.1-5.4,13.3-5.3c5,0.1,9.3,1.9,12.9,5.5C56.7,386.6,58.5,391,58.5,395z M24.5,396.1
				c0,4.2,1.7,8.1,4.6,11c3,3,6.6,4.5,10.9,4.5c8.7,0.1,15.7-7,15.6-15.5c0-4.3-1.5-7.9-4.5-10.9c-3-3-6.6-4.6-10.9-4.6
				C31.4,380.4,24.5,387.6,24.5,396.1z"/>
			<path class="st0" d="M44.3,404.4c-0.1,0.4-0.2,0.9-0.3,1.3c0,0,0,0.1-0.1,0.1c-0.9,0.4-1.8,0.7-2.8,1c-0.4,0.1-0.8,0.2-1.2,0.2
				c-0.3,0-0.5,0-0.8,0c-0.8,0-1.6-0.2-2.3-0.7c-0.7-0.5-1.2-1.2-1.3-2c-0.1-0.4,0-0.8,0-1.2c0.1-0.5,0.1-0.9,0.2-1.3
				c0.1-0.5,0.3-1,0.4-1.5c0.3-0.9,0.5-1.8,0.8-2.6c0.1-0.5,0.2-0.9,0.3-1.4c0.1-0.4,0.1-0.7,0-1.1c-0.1-0.5-0.4-0.8-0.9-0.9
				c-0.7-0.1-1.4,0-2.1,0.2c-0.2,0.1-0.4,0.1-0.5,0.2c0-0.2,0.1-0.3,0.1-0.5c0.1-0.3,0.1-0.5,0.2-0.8c0,0,0-0.1,0.1-0.1
				c0.9-0.4,1.9-0.7,2.8-1c0.4-0.1,0.8-0.2,1.2-0.2c0.7,0,1.5,0,2.2,0.2c0.9,0.3,1.6,0.9,1.9,1.8c0.2,0.5,0.2,1,0.2,1.5
				c0,0.2,0,0.5-0.1,0.7c0,0.5-0.1,0.9-0.3,1.4c-0.3,1.1-0.7,2.2-1,3.3c-0.2,0.5-0.2,1.1-0.3,1.6c0,0.2-0.1,0.4-0.1,0.5
				c0,0.3,0,0.6,0.1,0.9c0.2,0.4,0.5,0.5,0.8,0.6c0.7,0.2,1.4,0.1,2-0.1C43.8,404.6,44.1,404.5,44.3,404.4z"/>
			<path class="st0" d="M41.3,385c1.2,0,2.1,0.5,2.7,1.5c0.2,0.3,0.3,0.7,0.3,1.1c0.2,1.6-1.1,2.8-2.3,3c-1.1,0.2-2.1,0-2.9-0.8
				c-0.5-0.4-0.7-1-0.8-1.6c-0.1-1,0.2-1.8,0.9-2.4c0.5-0.4,1-0.7,1.6-0.7C41,385,41.2,385,41.3,385z"/>
		</g>
	</g>
</g>
</svg>
