<?xml version="1.0" encoding="utf-8"?>
<!-- Generator: Adobe Illustrator 21.0.2, SVG Export Plug-In . SVG Version: 6.00 Build 0)  -->
<svg version="1.1" id="Layer_1" xmlns="http://www.w3.org/2000/svg" xmlns:xlink="http://www.w3.org/1999/xlink" x="0px" y="0px"
	 viewBox="0 0 38 39" style="enable-background:new 0 0 38 39;" xml:space="preserve">
<style type="text/css">
	.st0{fill:#0FA124;}
</style>
<g id="Material-GUI-">
	<g id="Loging--Copy-6" transform="translate(-21.000000, -316.000000)">
		<g>
			<path class="st0" d="M58.5,334c0,11.2-8.3,19.7-18.7,19.6c-5-0.1-9.4-1.9-12.9-5.5c-3.6-3.6-5.4-8-5.4-13.1
				c0-5.1,1.9-9.6,5.5-13.2c3.7-3.6,8.1-5.4,13.3-5.3c5,0.1,9.3,1.9,12.9,5.5C56.7,325.7,58.5,330,58.5,334z M24.5,336.2
				c0,3.2,1.5,6.9,4.6,9.9c3,3,6.6,4.5,10.9,4.5c8.7,0.1,15.7-7,15.6-15.5c0-4.3-1.5-7.9-4.5-10.9c-3-3-6.6-4.6-10.9-4.6
				C31.4,319.4,24.5,326.6,24.5,336.2z"/>
			<path class="st0" d="M41.6,337.8c0,0.8,0,1.6,0,2.4c0,1.4,0,2.8,0,4.1c0,0.1,0,0.2,0,0.3c0,0.2-0.1,0.3-0.3,0.3
				c-0.1,0-0.1,0-0.2,0c-1.1,0-2.1,0-3.2,0c0,0-0.1,0-0.1,0c-0.3,0-0.4-0.1-0.4-0.4c0,0,0-0.1,0-0.1c0-3,0-5.9,0-8.9
				c0-0.1,0-0.1,0-0.2c0-0.1-0.1-0.2-0.2-0.2c-0.5,0-0.9,0-1.4,0c0,0-0.1,0-0.1,0c-0.2,0-0.3-0.1-0.3-0.3c0-1,0-1.9,0-2.9
				c0-0.2,0.1-0.2,0.3-0.2c0.4,0,0.8,0,1.1,0c0.1,0,0.2,0,0.3,0c0.2,0,0.3-0.1,0.3-0.3c0-0.3,0-0.6,0-0.9c0-0.4,0-0.9,0-1.3
				c0-0.6,0.1-1.2,0.4-1.7c0.4-0.9,1.2-1.6,2.2-1.9c0.3-0.1,0.7-0.2,1-0.2c0.6,0,1.2,0,1.9,0c0.5,0,0.9,0,1.4,0
				c0.3,0,0.4,0.1,0.4,0.4c0,0.1,0,0.2,0,0.3c0,0.8,0,1.6,0,2.3c0,0.3-0.1,0.4-0.5,0.4c-0.1,0-0.2,0-0.3,0c-0.4,0-0.8,0-1.2,0
				c-0.2,0-0.4,0.1-0.5,0.1c-0.3,0.1-0.4,0.4-0.4,0.7c0,0.3-0.1,0.5-0.1,0.8c0,0.4,0,0.7,0,1.1c0,0.2,0.1,0.3,0.3,0.3
				c0.8,0,1.5,0,2.3,0c0.1,0,0.1,0,0.2,0c0.1,0,0.2,0.1,0.2,0.3c0,0.2,0,0.4,0,0.6c0,0.2-0.1,0.5-0.1,0.7c0,0.4-0.1,0.7-0.1,1.1
				c0,0.2,0,0.3,0,0.5c0,0.2-0.2,0.3-0.4,0.3c-0.6,0-1.3,0-1.9,0c-0.1,0-0.2,0-0.3,0c-0.1,0-0.1,0-0.1,0.1c0,0.8,0,1.5,0,2.3
				C41.6,337.6,41.6,337.7,41.6,337.8C41.6,337.8,41.6,337.8,41.6,337.8z"/>
		</g>
	</g>
</g>
</svg>
