<?xml version="1.0" encoding="utf-8"?>
<!-- Generator: Adobe Illustrator 21.0.2, SVG Export Plug-In . SVG Version: 6.00 Build 0)  -->
<svg version="1.1" id="Layer_1" xmlns="http://www.w3.org/2000/svg" xmlns:xlink="http://www.w3.org/1999/xlink" x="0px" y="0px"
	 viewBox="0 0 38 39" style="enable-background:new 0 0 38 39;" xml:space="preserve">
<style type="text/css">
	.st0{fill:#0FA124;}
</style>
<g id="Material-GUI-">
	<g id="Loging--Copy-6" transform="translate(-21.000000, -250.000000)">
		<g>
			<path class="st0" d="M40,250.5c10.1,0,18.5,8.2,18.5,18.5c0,10.4-8.4,18.6-18.7,18.5c-10.1-0.1-18.4-8.3-18.3-18.6
				C21.5,258.7,29.9,250.5,40,250.5z M40,253.5c-8.5,0-15.5,6.9-15.5,15.5s6.9,15.5,15.4,15.6c8.6,0.1,15.7-6.9,15.7-15.5
				C55.5,260.4,48.5,253.5,40,253.5z"/>
		</g>
	</g>
</g>
<g>
	<path class="st0" d="M18.7,8.1c1.6,0,3.1,0.3,4.5,1c2.1,1,3.2,3.1,3,5.4c-0.1,1.2-0.7,2.2-1.5,3.1c-0.6,0.7-1.4,1.2-2.2,1.8
		c-0.3,0.2-0.6,0.4-0.9,0.7c-0.6,0.4-0.9,0.9-1.2,1.6c-0.1,0.2-0.2,0.4-0.3,0.6c-0.2,0.6-0.7,0.9-1.3,1c-0.9,0.2-1.6-0.1-2.1-0.8
		c-0.3-0.5-0.3-1-0.3-1.6c0.1-0.9,0.6-1.6,1.3-2.2c0.6-0.6,1.4-1.1,2-1.7c0.5-0.4,0.9-0.8,1.3-1.3c0.8-1,0.7-2.5-0.2-3.3
		c-0.5-0.5-1.1-0.6-1.7-0.7c-0.5,0-1.1,0-1.6,0.1c-0.8,0.2-1.3,0.8-1.6,1.5c-0.2,0.4-0.4,0.9-0.6,1.3c-0.7,1.1-2.3,1.3-3.2,0.3
		c-0.3-0.4-0.4-0.8-0.4-1.3c0.1-1.4,0.7-2.4,1.7-3.3C15,8.8,16.8,8.2,18.7,8.1z"/>
	<path class="st0" d="M21,27.6c0,1.3-1.1,2.4-2.4,2.4c-1.3,0-2.4-1.1-2.4-2.4c0-1.3,1.1-2.4,2.4-2.4C19.9,25.1,21,26.2,21,27.6z"/>
</g>
</svg>
