<svg id="Layer_1" data-name="Layer 1" xmlns="http://www.w3.org/2000/svg" viewBox="0 0 476.94 478.06"><defs><style>.cls-1{fill:none;stroke:#39b54a;stroke-miterlimit:10;stroke-width:36px;fill-rule:evenodd;}.cls-2{fill:#39b54a;}</style></defs><title>Language</title><path class="cls-1" d="M238.47,35.93C126.3,35.93,35.37,126.86,35.37,239S126.3,442.14,238.47,442.14,441.58,351.2,441.58,239,350.64,35.93,238.47,35.93Z"/><path class="cls-2" d="M238.34,110.73A128.3,128.3,0,1,0,366.77,239,128.24,128.24,0,0,0,238.34,110.73Zm88.91,77H289.41A200.78,200.78,0,0,0,271.7,142,103,103,0,0,1,327.26,187.71ZM238.47,136.9A180.73,180.73,0,0,1,263,187.71H214A180.73,180.73,0,0,1,238.47,136.9Zm-99.3,127.79a100.36,100.36,0,0,1,0-51.32h43.37a211.89,211.89,0,0,0-1.8,25.66,211.89,211.89,0,0,0,1.8,25.66Zm10.52,25.66h37.85A200.78,200.78,0,0,0,205.24,336,102.47,102.47,0,0,1,149.69,290.35Zm37.85-102.64H149.69A102.47,102.47,0,0,1,205.24,142,200.78,200.78,0,0,0,187.54,187.71Zm50.94,153.45A180.73,180.73,0,0,1,214,290.35h49A180.73,180.73,0,0,1,238.47,341.16Zm30-76.47h-60A188.77,188.77,0,0,1,206.4,239a187.13,187.13,0,0,1,2.05-25.66h60A187.13,187.13,0,0,1,270.55,239,188.77,188.77,0,0,1,268.49,264.69ZM271.7,336a200.78,200.78,0,0,0,17.71-45.67h37.85A103,103,0,0,1,271.7,336Zm22.71-71.34a211.89,211.89,0,0,0,1.8-25.66,211.89,211.89,0,0,0-1.8-25.66h43.37a100.36,100.36,0,0,1,0,51.32Z"/></svg>