<?xml version="1.0" encoding="utf-8"?>
<!-- Generator: Adobe Illustrator 21.0.2, SVG Export Plug-In . SVG Version: 6.00 Build 0)  -->
<svg version="1.1" id="Layer_1" xmlns="http://www.w3.org/2000/svg" xmlns:xlink="http://www.w3.org/1999/xlink" x="0px" y="0px"
	 viewBox="0 0 38 39" style="enable-background:new 0 0 38 39;" xml:space="preserve">
<style type="text/css">
	.st0{fill:#0FA124;}
</style>
<g id="Material-GUI-">
	<g id="Loging--Copy-6" transform="translate(-21.000000, -250.000000)">
		<g>
			<path class="st0" d="M40,250.5c10.1,0,18.5,8.2,18.5,18.5c0,10.4-8.4,18.6-18.7,18.5c-10.1-0.1-18.4-8.3-18.3-18.6
				C21.5,258.7,29.9,250.5,40,250.5z M40,253.5c-8.5,0-15.5,6.9-15.5,15.5s6.9,15.5,15.4,15.6c8.6,0.1,15.7-6.9,15.7-15.5
				C55.5,260.4,48.5,253.5,40,253.5z"/>
		</g>
	</g>
</g>
<path class="st0" d="M19,8.2C13,8.2,8.2,13.1,8.2,19c0,6,4.8,10.8,10.8,10.8c6,0,10.8-4.8,10.8-10.8C29.8,13,25,8.2,19,8.2
	C19,8.2,19,8.2,19,8.2z M26.5,14.7h-3.2c-0.3-1.3-0.8-2.6-1.5-3.8C23.8,11.5,25.4,12.9,26.5,14.7L26.5,14.7z M19,10.4
	c0.9,1.3,1.6,2.7,2.1,4.3h-4.1C17.4,13.2,18.1,11.7,19,10.4L19,10.4z M10.6,21.2c-0.4-1.4-0.4-2.9,0-4.3h3.6
	c-0.1,0.7-0.1,1.4-0.2,2.2c0,0.7,0.1,1.4,0.2,2.2H10.6z M11.5,23.3h3.2c0.3,1.3,0.8,2.6,1.5,3.8C14.2,26.5,12.6,25.1,11.5,23.3
	L11.5,23.3z M14.7,14.7h-3.2c1-1.8,2.7-3.2,4.7-3.8C15.6,12.1,15.1,13.4,14.7,14.7L14.7,14.7z M19,27.6c-0.9-1.3-1.6-2.7-2.1-4.3
	h4.1C20.6,24.8,19.9,26.3,19,27.6L19,27.6z M21.5,21.2h-5c-0.1-0.7-0.2-1.4-0.2-2.2c0-0.7,0.1-1.4,0.2-2.2h5
	c0.1,0.7,0.2,1.4,0.2,2.2C21.7,19.7,21.6,20.4,21.5,21.2z M21.8,27.2c0.7-1.2,1.2-2.5,1.5-3.8h3.2C25.4,25.1,23.8,26.5,21.8,27.2
	L21.8,27.2z M23.7,21.2c0.1-0.7,0.1-1.4,0.2-2.2c0-0.7-0.1-1.4-0.2-2.2h3.6c0.4,1.4,0.4,2.9,0,4.3L23.7,21.2z"/>
</svg>
