<?xml version="1.0" encoding="utf-8"?>
<!-- Generator: Adobe Illustrator 21.0.2, SVG Export Plug-In . SVG Version: 6.00 Build 0)  -->
<svg version="1.1" id="Layer_1" xmlns="http://www.w3.org/2000/svg" xmlns:xlink="http://www.w3.org/1999/xlink" x="0px" y="0px"
	 viewBox="0 0 38 39" style="enable-background:new 0 0 38 39;" xml:space="preserve">
<style type="text/css">
	.st0{fill:#0FA124;}
</style>
<g id="Material-GUI-">
	<g id="Loging--Copy-6" transform="translate(-21.000000, -436.000000)">
		<g>
			<path class="st0" d="M58.5,454c0,11.2-8.3,19.7-18.8,19.6c-5-0.1-9.4-1.9-12.9-5.5c-3.6-3.6-5.4-8-5.4-13.1
				c0-5.1,1.9-9.6,5.5-13.2c3.7-3.6,8.2-5.4,13.3-5.3c5,0.1,9.3,1.9,12.9,5.5C56.7,445.7,58.5,450,58.5,454z M24.5,455.1
				c0,4.2,1.7,8.1,4.6,11c3,3,6.6,4.5,10.9,4.5c8.7,0.1,15.7-7,15.6-15.5c0-4.3-1.5-7.9-4.5-10.9c-3-3-6.6-4.5-10.9-4.6
				C31.4,439.4,24.5,446.6,24.5,455.1z"/>
			<path class="st0" d="M43.3,453.8c0-0.1-0.1-0.1-0.1-0.1c-0.6-0.6-1.3-1.3-1.9-1.9c-0.3-0.3-0.4-0.6-0.4-1c0-0.5,0.5-1,1-1.1
				c0.4-0.1,0.8,0,1.2,0.4c0.8,0.8,1.7,1.7,2.5,2.5c0.5,0.5,1.1,1.1,1.6,1.6c0.3,0.3,0.4,0.6,0.4,1c0,0.4-0.2,0.7-0.4,0.9
				c-1.2,1.2-2.4,2.4-3.5,3.5c-0.2,0.2-0.4,0.4-0.6,0.6c-0.7,0.7-1.9,0.4-2.1-0.6c-0.1-0.4,0-0.8,0.3-1.1c0.1-0.2,0.3-0.3,0.4-0.4
				c0.5-0.5,1.1-1.1,1.6-1.6c0,0,0,0,0-0.1c0,0,0,0-0.1,0c0,0-0.1,0-0.1,0c-1.9,0-3.7,0-5.6,0c-0.6,0-1-0.3-1.3-0.8
				c-0.4-0.7,0.2-1.6,0.9-1.7c0.1,0,0.2,0,0.3,0c1.9,0,3.8,0,5.7,0C43.2,453.8,43.3,453.8,43.3,453.8z"/>
			<path class="st0" d="M34,455.1c0,1.7,0,3.4,0,5c0,0.7,0.4,1,0.9,1.1c0.3,0.1,0.6,0.1,0.9,0.1c0.3,0,0.6-0.1,0.9,0
				c0.3,0.1,0.5,0.4,0.5,0.7c0,0.2,0,0.4-0.1,0.6c-0.1,0.2-0.3,0.3-0.6,0.3c-0.5,0-1,0-1.5,0c-0.4,0-0.7,0-1-0.2
				c-0.5-0.2-0.9-0.6-1.2-1c-0.3-0.4-0.4-0.8-0.4-1.3c0-0.1,0-0.2,0-0.3c0-3.4,0-6.7,0-10.1c0-0.4,0.1-0.9,0.3-1.3
				c0.3-0.8,0.9-1.2,1.7-1.4c0.5-0.1,1-0.1,1.5-0.1c0.2,0,0.5,0,0.7,0c0.3,0,0.6,0.3,0.6,0.7c0,0.2,0,0.3-0.1,0.5
				c-0.2,0.3-0.4,0.4-0.7,0.4c-0.1,0-0.3,0-0.4,0c-0.3,0-0.5,0-0.8,0c-0.2,0-0.4,0-0.6,0.1c-0.4,0.2-0.6,0.6-0.6,1
				C34,451.7,34,453.4,34,455.1z"/>
		</g>
	</g>
</g>
</svg>
